# xmcd
#
# Track frame offsets: 
#        150
#        45772
#        73080
#        104458
#        129072
#        164947
#        191257
#        227720
#
# Disc length: 3383 seconds
#
# Revision: 1
# Processed by: cddbd v1.5.2PL0 Copyright (c) Steve Scherf et al.
# Submitted via: ExactAudioCopy v1.0b1
#
DISCID=630d3508
DTITLE=George Garzone - Among Friends
DYEAR=2008
DGENRE=Jazz
TTITLE0=Theme For Ernie (Lacey)
TTITLE1=Alone (Garzone)
TTITLE2=To My Papa (Garzone)
TTITLE3=Between Two Cities (Garzone)
TTITLE4=My One And Only Love (Wood,Mellin)
TTITLE5=Milestones (Davis)
TTITLE6=Farewell (Garzone)
TTITLE7=Free (Garzone)
EXTD=YEAR: 2008
EXTT0=
EXTT1=
EXTT2=
EXTT3=
EXTT4=
EXTT5=
EXTT6=
EXTT7=
PLAYORDER=
